<?xml version="1.0" standalone="no"?>
<!DOCTYPE svg PUBLIC "-//W3C//DTD SVG 20010904//EN"
 "http://www.w3.org/TR/2001/REC-SVG-20010904/DTD/svg10.dtd">
<svg version="1.0" xmlns="http://www.w3.org/2000/svg"
 width="1200.000000pt" height="1200.000000pt" viewBox="0 0 1200.000000 1200.000000"
 preserveAspectRatio="xMidYMid meet">

<g transform="translate(0.000000,1200.000000) scale(0.100000,-0.100000)"
fill="#000000" stroke="none">
<path d="M5604 11683 c-210 -266 -401 -477 -804 -886 -102 -104 -176 -186
-165 -183 54 15 105 23 105 17 0 -4 -79 -83 -176 -176 -97 -92 -193 -191 -214
-219 -48 -64 -113 -190 -141 -274 -12 -36 -25 -60 -30 -55 -5 5 -24 44 -43 87
-24 56 -35 73 -39 60 -3 -11 -15 -57 -26 -104 -11 -47 -44 -166 -74 -265 -70
-231 -141 -495 -164 -610 -27 -140 -24 -454 6 -595 12 -58 25 -108 29 -112 4
-4 16 32 25 80 41 200 91 325 178 443 62 84 96 115 299 269 174 132 268 220
295 277 40 83 93 353 70 353 -3 0 -46 -27 -95 -60 -49 -33 -92 -60 -95 -60 -3
0 -5 18 -5 41 0 54 32 134 155 384 104 210 166 306 345 537 127 163 382 400
405 376 3 -3 -1 -46 -9 -94 -47 -276 -43 -336 39 -709 35 -159 36 -241 5 -325
-20 -55 -37 -78 -114 -155 -82 -82 -103 -97 -213 -150 -91 -45 -120 -64 -116
-75 74 -191 100 -304 110 -472 l6 -107 41 32 c68 54 165 158 213 230 25 38 82
139 126 225 44 86 82 159 84 161 11 14 54 -24 74 -65 44 -92 35 -338 -17 -463
-8 -19 -13 -36 -11 -38 6 -6 134 94 190 149 130 129 197 296 197 496 0 114
-19 211 -109 544 -151 558 -191 745 -220 1033 -10 94 -31 441 -31 513 0 17 -4
32 -8 32 -5 0 -40 -39 -78 -87z"/>
<path d="M6567 11178 c-18 -24 -76 -106 -128 -183 -78 -117 -121 -167 -255
-301 -89 -88 -167 -170 -173 -182 -18 -34 -13 -69 29 -197 48 -148 79 -313 87
-460 4 -84 13 -131 35 -199 38 -114 34 -170 -28 -338 -24 -67 -44 -124 -44
-126 0 -2 42 34 93 80 50 47 128 108 173 136 l81 52 17 83 c27 125 44 178 71
219 14 21 25 40 25 43 0 3 -13 5 -30 5 -16 0 -30 2 -30 5 0 3 34 65 76 136 97
165 120 222 134 333 13 102 8 158 -45 513 -21 140 -35 272 -35 329 0 52 -4 94
-9 94 -5 0 -25 -19 -44 -42z"/>
<path d="M6624 9625 c-4 -9 -3 -57 3 -107 10 -104 21 -90 -105 -129 -165 -50
-333 -213 -418 -404 -25 -58 -19 -67 24 -36 42 29 181 96 247 119 174 59 352
88 495 79 185 -12 310 -61 525 -208 140 -95 385 -293 374 -303 -4 -4 -106 3
-439 28 -512 39 -523 41 -645 101 -38 18 -94 52 -124 74 -30 23 -57 39 -59 36
-12 -12 180 -214 255 -267 49 -36 52 -43 21 -52 -58 -15 -169 -5 -305 29 -371
91 -543 104 -718 53 -36 -11 -24 -13 140 -24 99 -6 209 -17 245 -24 132 -24
283 -82 485 -185 110 -56 228 -112 263 -125 34 -12 62 -23 62 -24 0 0 -87 -1
-192 -1 -176 0 -206 -3 -338 -30 l-145 -30 100 -8 c141 -11 281 -31 495 -72
264 -50 391 -61 537 -48 65 5 119 9 121 8 1 -1 -53 -43 -121 -93 -276 -203
-449 -290 -852 -424 -99 -33 -191 -66 -205 -74 -24 -13 -24 -13 17 -14 50 0
289 43 391 71 189 51 528 204 727 329 224 141 456 274 610 351 128 64 150 72
255 89 177 28 319 40 489 40 165 0 906 -27 979 -36 l43 -5 -60 -70 c-123 -142
-145 -217 -73 -256 54 -30 75 -33 331 -52 l234 -17 35 -39 c34 -37 35 -38 29
-109 -8 -100 -37 -177 -113 -302 -36 -60 -86 -148 -110 -196 -32 -63 -49 -88
-63 -88 -92 0 -1092 -128 -1206 -155 -35 -8 -89 -26 -121 -40 -57 -25 -343
-195 -376 -223 -25 -21 -22 -44 10 -74 52 -49 60 -47 218 48 160 96 233 126
369 154 249 52 461 70 818 70 243 0 288 -2 293 -15 11 -28 -18 -86 -72 -144
-47 -51 -68 -64 -147 -96 -177 -72 -234 -86 -586 -151 -437 -79 -650 -125
-800 -170 -576 -175 -960 -402 -1371 -814 -408 -407 -635 -774 -696 -1121 -20
-113 -14 -321 11 -414 42 -152 161 -351 285 -474 102 -102 200 -167 350 -234
120 -53 259 -101 267 -94 2 3 -34 25 -79 51 -159 89 -272 206 -344 352 -62
126 -74 193 -74 409 0 141 5 201 20 275 80 387 273 713 630 1070 215 215 450
392 724 543 301 167 706 315 1097 401 64 14 121 26 127 26 7 0 8 -10 1 -32
-12 -45 -11 -158 2 -197 6 -17 12 -31 14 -31 1 0 44 42 96 93 56 56 113 103
142 116 51 25 208 55 345 66 l83 7 -7 43 c-11 76 6 104 140 229 196 184 220
249 146 396 -65 128 -53 181 75 340 111 137 130 175 121 246 -3 30 -9 78 -12
108 -9 77 22 128 124 202 142 104 162 130 202 263 41 133 14 257 -78 361 l-40
45 -148 -2 c-165 -1 -336 -22 -491 -58 -249 -59 -948 -48 -1317 21 -227 42
-316 88 -579 298 -108 86 -248 194 -309 238 -179 128 -291 172 -706 278 -178
45 -345 94 -380 110 -52 24 -117 67 -199 132 -9 7 -15 5 -19 -7z m761 -1115
c247 -9 332 -16 483 -36 28 -3 52 -10 52 -14 0 -11 -128 -89 -217 -134 -130
-65 -268 -83 -368 -48 -27 10 -86 42 -130 71 -91 62 -235 171 -235 179 0 2 33
2 73 -2 39 -3 194 -11 342 -16z"/>
<path d="M4781 8591 c-36 -119 -86 -223 -163 -342 -100 -153 -197 -237 -442
-381 -66 -39 -134 -80 -151 -90 l-30 -19 112 3 c62 2 109 1 105 -3 -4 -3 -68
-52 -142 -109 -216 -166 -304 -244 -391 -348 -79 -94 -263 -361 -255 -370 3
-2 67 41 144 96 262 189 475 323 535 337 41 11 36 -14 -39 -170 -96 -199 -249
-677 -298 -930 -80 -413 -22 -882 143 -1154 40 -66 153 -213 159 -207 2 2 -21
71 -51 153 -117 317 -145 474 -134 748 13 294 76 480 195 571 66 50 111 61
166 40 120 -46 132 -128 50 -371 -22 -67 -27 -103 -31 -220 -8 -232 27 -393
148 -673 44 -101 162 -301 188 -316 5 -3 -22 101 -60 231 -65 222 -70 249 -85
417 -14 151 -15 207 -6 346 10 146 17 191 63 369 49 193 51 206 40 256 -7 29
-23 75 -36 102 -22 43 -38 56 -155 127 -140 86 -150 98 -165 197 -8 55 9 179
36 257 23 67 91 182 201 339 43 62 78 117 78 124 0 7 -11 9 -32 5 -93 -17
-111 -19 -107 -8 2 6 73 85 157 176 161 176 198 233 255 391 30 85 57 236 57
321 0 68 -16 161 -30 169 -4 3 -18 -26 -29 -64z"/>
<path d="M3412 8575 c-18 -39 -140 -222 -190 -284 -26 -31 -263 -293 -527
-580 -264 -288 -498 -551 -521 -585 -143 -213 -366 -589 -457 -771 -57 -114
-142 -315 -133 -315 2 0 62 73 134 163 236 294 374 447 403 447 6 0 -14 -27
-43 -60 -116 -128 -265 -436 -465 -965 -35 -93 -71 -206 -79 -250 -35 -195
-84 -622 -84 -726 0 -27 -3 -49 -8 -49 -10 0 -78 116 -202 343 -56 103 -106
187 -110 187 -14 0 -19 -27 -31 -191 -20 -279 -2 -609 52 -944 50 -310 171
-705 321 -1045 109 -248 225 -474 307 -598 80 -119 252 -314 266 -300 4 4 -9
87 -28 185 -65 325 -72 405 -72 828 0 371 6 474 37 590 l10 40 34 -95 c104
-291 255 -506 566 -806 162 -156 351 -314 734 -611 329 -256 465 -383 598
-560 54 -72 146 -228 146 -247 0 -4 -55 44 -122 108 -137 128 -185 168 -176
146 109 -253 131 -394 109 -690 -18 -238 -54 -455 -105 -630 l-24 -80 28 20
c89 63 337 355 469 550 85 126 253 458 325 640 118 301 141 462 115 791 -16
204 -35 285 -194 804 -81 264 -158 532 -171 595 -58 277 -57 879 2 1078 11 39
-21 26 -70 -29 -32 -35 -75 -109 -132 -225 -83 -167 -87 -177 -119 -337 -37
-181 -61 -406 -51 -468 4 -24 3 -39 -3 -37 -18 6 -295 356 -367 463 -110 162
-277 503 -339 688 -47 143 -54 195 -61 502 -6 229 -4 287 10 379 23 141 74
327 131 472 25 64 45 118 45 121 0 11 -121 -64 -195 -122 -92 -72 -273 -253
-371 -370 -84 -101 -246 -318 -309 -412 -26 -40 -50 -73 -53 -73 -10 0 7 287
23 400 34 230 140 572 238 767 49 96 195 313 302 446 48 60 84 111 81 115 -21
21 -163 -60 -259 -147 -53 -49 -179 -193 -220 -251 -9 -13 -19 -22 -22 -19 -8
8 23 171 50 265 14 46 41 117 61 157 38 75 259 430 375 602 108 161 244 424
284 550 48 151 85 319 85 387 0 63 -11 80 -28 43z m-812 -4100 c19 -89 85
-277 135 -382 59 -125 152 -259 260 -373 276 -290 559 -633 672 -815 76 -122
175 -331 208 -439 14 -48 24 -90 22 -92 -2 -2 -52 52 -111 120 -113 132 -160
176 -401 378 -185 155 -401 375 -506 516 -87 117 -198 329 -248 473 -79 229
-113 509 -77 633 10 32 21 55 25 50 4 -5 14 -36 21 -69z"/>
<path d="M5928 8033 c-567 -619 -751 -875 -852 -1185 -66 -201 -79 -283 -79
-483 1 -114 7 -220 17 -290 41 -271 159 -595 216 -595 11 0 20 5 20 11 0 6 27
68 60 137 61 126 107 199 119 187 3 -4 6 -156 7 -338 1 -267 4 -350 18 -422
17 -89 62 -293 72 -327 4 -14 -1 -18 -20 -18 -20 0 -69 42 -213 183 -102 100
-184 177 -180 172 16 -29 338 -953 360 -1035 52 -192 118 -587 138 -823 28
-327 -32 -748 -159 -1128 -126 -373 -257 -634 -544 -1084 -60 -93 -107 -177
-105 -185 9 -46 122 10 274 138 209 174 269 239 395 422 177 257 293 499 363
755 64 236 73 319 95 820 40 927 50 1064 97 1295 82 406 185 680 349 922 171
253 244 327 715 722 123 103 252 212 286 242 114 100 323 382 323 436 0 10 -7
18 -16 18 -9 0 -86 -52 -171 -116 -300 -225 -700 -488 -1065 -701 -262 -153
-524 -211 -630 -140 -50 34 -93 111 -92 166 1 91 132 286 210 311 75 25 106
-6 133 -133 17 -79 19 -82 47 -85 78 -8 489 172 667 292 200 133 390 307 512
466 51 67 145 217 145 232 0 5 -41 -27 -91 -71 -287 -254 -525 -437 -659 -507
-52 -27 -62 -29 -175 -29 -139 0 -173 10 -208 63 -39 61 -45 90 -36 182 4 47
8 99 8 117 l1 32 -97 -50 c-204 -103 -350 -106 -485 -9 -105 75 -159 195 -161
355 0 50 5 108 12 130 7 22 119 248 248 503 196 387 296 602 278 602 -2 0 -68
-71 -147 -157z"/>
<path d="M7798 5036 c-224 -149 -483 -365 -626 -522 -87 -97 -172 -202 -172
-214 0 -14 39 -47 76 -65 39 -18 38 -14 19 -85 -34 -126 -13 -260 65 -422 46
-95 121 -163 370 -335 259 -180 263 -183 301 -242 51 -80 38 -131 -57 -222
-187 -177 -404 -195 -738 -60 -48 20 -86 29 -99 25 -11 -3 -73 -59 -137 -123
-199 -197 -350 -403 -479 -652 -89 -170 -137 -281 -147 -337 l-7 -37 86 82
c138 130 246 171 325 123 46 -28 76 -98 68 -158 -17 -126 -77 -230 -156 -269
-25 -13 -107 -52 -182 -89 -355 -171 -560 -377 -673 -677 l-25 -68 57 39 c178
120 387 237 534 297 112 45 555 144 965 216 256 44 399 111 634 298 113 89
188 158 202 185 10 18 7 19 -88 13 -117 -7 -302 7 -387 29 -184 47 -267 143
-254 293 9 106 22 135 92 205 129 127 215 153 576 176 116 8 208 19 249 31 87
24 243 101 308 151 106 82 184 220 218 388 15 74 15 101 6 213 -17 191 -75
347 -189 512 -62 91 -78 93 -158 25 -76 -65 -120 -88 -204 -106 -205 -43 -388
8 -510 144 -63 69 -142 195 -167 264 -38 107 -35 252 7 393 44 146 180 378
323 549 68 80 80 96 74 96 -2 0 -47 -29 -100 -64z"/>
</g>
</svg>
