<?xml version="1.0" standalone="no"?>
<!DOCTYPE svg PUBLIC "-//W3C//DTD SVG 20010904//EN"
 "http://www.w3.org/TR/2001/REC-SVG-20010904/DTD/svg10.dtd">
<svg version="1.0" xmlns="http://www.w3.org/2000/svg"
 width="500.000000pt" height="500.000000pt" viewBox="0 0 500.000000 500.000000"
 preserveAspectRatio="xMidYMid meet">

<g transform="translate(0.000000,500.000000) scale(0.100000,-0.100000)"
fill="#000000" stroke="none">
<path d="M2376 3934 c-22 -27 -83 -93 -135 -146 -52 -54 -89 -98 -82 -98 7 0
-14 -29 -48 -65 -33 -36 -64 -77 -67 -92 -6 -24 -8 -25 -19 -9 -11 15 -16 8
-33 -51 -41 -135 -52 -188 -52 -258 0 -83 14 -116 25 -58 10 57 37 94 119 161
64 53 76 67 84 104 5 24 7 44 6 46 -1 2 -12 -2 -24 -8 -12 -6 -24 -9 -27 -6
-8 7 50 127 88 183 34 50 127 153 138 153 3 0 6 -37 6 -82 1 -46 5 -112 9
-148 8 -64 8 -65 -24 -97 -17 -18 -44 -37 -59 -44 -28 -12 -28 -13 -14 -57 7
-25 13 -61 13 -80 l0 -36 29 28 c16 16 44 55 62 89 30 57 33 59 46 41 11 -14
13 -34 9 -72 l-6 -53 24 18 c40 29 66 85 66 139 0 27 -16 106 -34 177 -30 109
-48 215 -59 341 l-2 29 -39 -49z"/>
<path d="M2628 3807 c-14 -21 -49 -63 -77 -93 -56 -59 -56 -60 -40 -101 23
-61 39 -223 25 -262 -8 -22 -4 -21 37 13 30 25 47 47 51 69 12 65 14 73 35
112 24 44 25 87 7 215 l-12 85 -26 -38z"/>
<path d="M2660 3407 c0 -16 -12 -29 -46 -47 -40 -21 -84 -69 -84 -92 0 -4 21
3 47 14 63 28 167 35 213 15 19 -8 64 -36 100 -63 54 -41 61 -49 43 -52 -46
-7 -231 17 -264 33 l-34 17 34 -36 35 -36 -30 0 c-16 0 -62 7 -103 15 -45 10
-86 13 -105 8 -27 -6 -22 -8 35 -13 49 -5 88 -17 150 -47 l84 -41 -50 -1 c-27
-1 -61 -4 -75 -8 -26 -7 60 -24 210 -41 l65 -7 -45 -31 c-61 -42 -95 -59 -181
-89 -73 -26 -73 -26 -24 -20 74 10 165 49 297 127 64 38 132 74 150 80 32 10
396 13 406 4 2 -3 -5 -17 -17 -32 -39 -49 -25 -64 60 -64 99 0 112 -33 54
-137 -32 -57 -39 -63 -68 -63 -18 0 -92 -9 -165 -20 -109 -16 -143 -25 -188
-50 -30 -18 -54 -38 -54 -46 0 -20 12 -18 77 16 64 32 165 50 289 50 79 0 92
-10 56 -43 -31 -28 -88 -47 -227 -72 -253 -47 -373 -103 -510 -240 -50 -49
-103 -109 -119 -132 -44 -66 -76 -153 -76 -208 0 -98 75 -202 177 -246 61 -26
63 -24 14 12 -63 45 -85 102 -78 200 15 230 255 462 567 548 97 27 100 27 100
-11 l0 -31 23 20 c31 28 55 40 105 48 27 4 42 12 42 22 0 8 16 29 36 46 51 45
56 59 42 110 -11 42 -10 46 22 90 25 36 31 52 26 72 -6 23 0 33 35 67 47 45
62 100 38 145 l-14 26 -90 -9 c-49 -4 -164 -8 -255 -7 -198 0 -216 6 -334 98
-94 73 -126 88 -241 117 -44 11 -95 28 -113 39 -41 24 -42 24 -42 -4z m263
-264 c37 -3 67 -9 67 -13 0 -4 -23 -18 -52 -30 -61 -26 -91 -22 -149 20 l-42
30 54 0 c30 0 84 -3 122 -7z"/>
<path d="M2167 3121 c-32 -66 -48 -83 -127 -136 -44 -30 -50 -36 -27 -32 15 2
27 3 27 2 0 -1 -26 -22 -57 -46 -54 -42 -133 -131 -133 -150 0 -5 34 13 75 41
65 44 95 59 95 46 0 -2 -11 -28 -24 -57 -93 -204 -102 -436 -20 -535 l24 -29
-21 60 c-25 71 -30 200 -10 258 15 45 51 72 82 62 20 -7 21 -11 13 -64 -14
-101 -8 -171 21 -243 38 -96 60 -109 35 -21 -24 82 -26 184 -5 268 19 74 10
107 -35 130 -58 30 -59 95 -1 178 36 52 37 57 15 57 -12 0 -4 13 24 44 55 59
73 98 79 168 3 32 4 58 2 58 -2 0 -17 -27 -32 -59z"/>
<path d="M1808 3124 c-14 -22 -83 -102 -154 -179 -142 -154 -216 -261 -271
-390 -10 -24 -1 -17 42 30 l55 60 -29 -55 c-62 -118 -99 -232 -113 -345 l-14
-110 -26 50 c-55 104 -57 103 -58 -23 0 -186 44 -356 141 -542 22 -42 54 -90
71 -106 l31 -29 -7 30 c-17 80 -27 236 -19 310 l8 80 32 -65 c45 -91 103 -153
266 -284 140 -113 188 -158 220 -206 28 -41 19 -46 -20 -9 -26 24 -34 28 -28
14 22 -58 26 -104 16 -190 -6 -49 -14 -101 -17 -115 -6 -23 -3 -21 35 15 57
54 115 145 156 246 31 75 35 94 35 175 0 81 -6 110 -51 260 l-50 169 3 127 c3
117 2 126 -14 112 -27 -25 -57 -107 -68 -185 -6 -40 -12 -74 -14 -76 -2 -2
-26 27 -54 65 -124 166 -166 332 -125 489 11 43 24 86 28 97 24 56 -123 -81
-190 -178 -21 -31 -40 -54 -43 -52 -2 3 1 40 6 84 15 107 57 214 113 289 60
78 40 86 -32 12 -27 -28 -49 -46 -49 -41 0 34 37 116 88 196 73 113 105 175
122 238 17 65 9 77 -22 32z m-178 -1032 c0 -35 53 -128 108 -190 138 -156 192
-233 212 -302 8 -26 -8 -15 -106 77 -127 118 -169 170 -204 253 -25 61 -41
198 -21 186 6 -4 11 -15 11 -24z"/>
<path d="M2454 2993 c-164 -185 -214 -279 -214 -403 0 -73 40 -220 60 -220 4
0 15 18 25 40 10 22 21 40 24 40 3 0 7 -44 8 -98 0 -54 6 -116 12 -137 6 -21
8 -41 6 -44 -3 -3 -26 15 -52 40 -52 50 -52 54 6 -112 117 -332 88 -581 -103
-879 -19 -30 -33 -56 -31 -59 9 -8 75 42 121 91 60 63 104 139 134 228 18 53
25 109 35 305 23 401 60 490 289 680 93 77 175 170 162 183 -3 2 -31 -16 -64
-41 -75 -58 -243 -164 -299 -189 -114 -50 -187 3 -114 84 25 28 31 30 45 19 9
-7 16 -22 16 -32 0 -28 24 -24 114 21 93 45 162 101 208 168 l32 47 -43 -35
c-134 -109 -152 -120 -195 -120 -52 0 -66 13 -66 61 l0 38 -27 -15 c-75 -38
-151 -2 -160 77 -5 40 1 56 56 161 58 111 84 168 78 168 -2 0 -30 -30 -63 -67z"/>
<path d="M4220 2494 c-42 -18 -83 -69 -106 -133 -43 -117 -39 -111 -88 -111
-34 0 -46 -4 -46 -15 0 -11 12 -15 45 -15 53 0 53 0 21 -100 -13 -41 -26 -84
-28 -95 -4 -23 -61 89 -84 165 -13 44 -12 48 27 149 22 57 37 107 32 111 -13
13 -143 24 -143 12 0 -6 14 -13 31 -17 17 -4 33 -13 35 -20 7 -16 -24 -77 -35
-71 -8 6 -67 -40 -137 -107 l-41 -39 -26 26 c-44 44 -98 29 -160 -45 -38 -43
-77 -142 -77 -192 0 -72 56 -126 118 -112 37 8 95 68 120 122 l19 43 22 -48
c17 -37 21 -57 16 -85 -7 -35 -6 -37 18 -37 15 0 31 -9 41 -25 15 -23 15 -25
-8 -48 -44 -44 -1 -106 62 -92 26 5 30 3 36 -20 8 -31 11 -24 -78 -146 -106
-144 -225 -315 -232 -333 -10 -26 35 -20 102 14 73 37 206 135 302 223 74 69
91 76 128 54 161 -94 336 -147 488 -147 65 0 81 4 163 44 50 24 93 48 96 53 3
5 -38 20 -91 32 -226 54 -391 120 -472 190 l-42 36 15 35 c9 19 63 94 121 165
101 124 134 180 123 209 -6 15 -162 40 -221 34 -38 -3 -45 -10 -125 -112 -47
-60 -87 -104 -89 -98 -3 11 13 76 57 222 16 54 17 55 56 58 48 4 72 22 29 22
-47 0 -58 12 -50 59 9 61 51 147 80 166 32 22 66 12 66 -19 0 -13 7 -29 16
-37 23 -19 49 1 49 37 0 50 -80 70 -155 38z m-552 -287 c7 -8 7 -18 2 -27 -5
-8 -7 -23 -4 -32 9 -30 -97 -207 -137 -229 -30 -15 -61 14 -53 50 11 50 61
146 103 199 41 52 69 64 89 39z"/>
<path d="M2910 2252 c-59 -3 -98 -29 -125 -82 -17 -34 -25 -118 -12 -123 6 -2
10 -23 9 -48 -3 -66 23 -106 108 -167 95 -67 103 -83 63 -123 -39 -39 -93 -47
-163 -24 -60 20 -63 19 -137 -77 -38 -50 -103 -165 -103 -183 0 -4 14 3 30 15
56 40 105 10 80 -49 -9 -23 -30 -41 -81 -67 -79 -42 -131 -89 -159 -145 -11
-21 -18 -39 -15 -39 2 0 27 14 55 31 73 45 129 64 265 89 129 24 211 59 261
111 l28 29 -45 0 c-61 0 -117 17 -129 40 -17 32 -12 75 13 98 31 29 60 38 147
47 129 13 187 59 197 159 6 58 -13 133 -45 174 l-18 23 -29 -22 -30 -23 30 33
c27 29 31 30 40 16 30 -51 47 -65 80 -65 48 0 88 39 132 127 33 66 37 84 38
152 0 71 -2 76 -22 79 -36 5 -47 -30 -23 -75 36 -67 22 -135 -40 -186 -42 -36
-64 -41 -105 -21 -44 21 -45 44 -5 107 35 55 46 110 31 150 -15 39 -60 38 -96
-5 -25 -30 -26 -36 -24 -131 2 -89 1 -101 -17 -114 -48 -35 -105 -28 -124 16
-15 38 -7 89 31 182 16 40 26 76 22 79 -13 12 -54 16 -113 12z m-55 -82 c-20
-22 -31 -20 -22 5 4 8 14 15 23 15 16 0 16 -2 -1 -20z m113 11 c11 -6 5 -25
-27 -85 -23 -43 -41 -84 -41 -92 0 -9 -4 -12 -10 -9 -15 9 -12 91 5 132 26 61
43 74 73 54z m230 -54 c4 -30 -34 -101 -49 -91 -11 6 -12 107 -2 118 17 17 48
0 51 -27z"/>
</g>
</svg>
